<?xml version="1.0" standalone="no"?>
<!DOCTYPE svg PUBLIC "-//W3C//DTD SVG 20010904//EN"
 "http://www.w3.org/TR/2001/REC-SVG-20010904/DTD/svg10.dtd">
<svg version="1.0" xmlns="http://www.w3.org/2000/svg"
 width="1024.000000pt" height="1024.000000pt" viewBox="0 0 1024.000000 1024.000000"
 preserveAspectRatio="xMidYMid meet">
<metadata>
Created by potrace 1.14, written by Peter Selinger 2001-2017
</metadata>
<g transform="translate(0.000000,1024.000000) scale(0.100000,-0.100000)"
fill="#000000" stroke="none">
<path d="M4395 10229 c-98 -28 -183 -111 -216 -207 -11 -35 -19 -66 -15 -69 3
-3 1 -14 -4 -24 -7 -12 -7 -20 0 -24 7 -4 7 -12 0 -25 -7 -13 -7 -21 0 -25 7
-4 7 -12 0 -25 -7 -13 -7 -21 0 -25 6 -4 7 -12 1 -23 -5 -9 -5 -26 0 -39 5
-14 5 -23 -1 -23 -6 0 -6 -9 0 -25 6 -15 6 -26 -1 -30 -5 -4 -6 -11 -3 -17 10
-17 11 -51 2 -70 -6 -12 -5 -18 2 -18 8 0 8 -6 0 -20 -8 -14 -8 -20 0 -20 8 0
8 -6 0 -20 -8 -14 -8 -20 0 -20 8 0 8 -6 0 -20 -8 -14 -8 -20 0 -20 8 0 8 -6
0 -20 -8 -14 -8 -20 0 -20 8 0 8 -6 0 -20 -8 -14 -8 -20 0 -20 8 0 8 -6 0 -20
-8 -14 -8 -20 0 -20 6 0 8 -5 5 -11 -10 -16 -12 -79 -2 -79 4 0 3 -8 -2 -18
-6 -11 -6 -24 0 -34 6 -11 6 -19 -1 -23 -7 -4 -7 -12 0 -25 7 -13 7 -21 0 -25
-7 -4 -7 -12 0 -25 7 -13 7 -21 0 -25 -7 -4 -7 -12 0 -25 7 -13 7 -21 0 -25
-7 -4 -7 -13 0 -26 8 -13 7 -19 0 -19 -7 0 -8 -6 0 -19 7 -13 7 -22 0 -26 -7
-4 -7 -12 0 -25 7 -13 7 -21 0 -25 -7 -4 -7 -12 0 -25 7 -13 7 -21 0 -25 -7
-4 -7 -12 0 -25 7 -13 7 -21 0 -25 -6 -4 -7 -13 -1 -23 6 -11 6 -24 0 -35 -6
-9 -6 -17 -2 -17 10 0 8 -63 -2 -79 -3 -6 -1 -11 5 -11 8 0 8 -6 0 -20 -8 -14
-8 -20 0 -20 8 0 8 -6 0 -20 -8 -14 -8 -20 0 -20 8 0 8 -6 0 -20 -8 -14 -8
-20 0 -20 8 0 8 -6 0 -20 -8 -14 -8 -20 0 -20 8 0 8 -6 0 -20 -8 -14 -8 -20 0
-20 8 0 8 -6 0 -20 -8 -14 -8 -20 0 -20 6 0 8 -5 5 -11 -10 -16 -12 -79 -2
-79 4 0 3 -9 -3 -19 -7 -13 -7 -22 0 -26 7 -4 7 -12 0 -25 -7 -13 -7 -21 0
-25 7 -4 7 -13 0 -26 -7 -12 -7 -19 -1 -19 7 0 7 -9 1 -25 -6 -16 -6 -25 0
-25 6 0 6 -9 0 -25 -6 -16 -6 -25 1 -25 6 0 6 -7 -1 -19 -7 -13 -7 -22 0 -26
7 -4 7 -12 0 -25 -7 -13 -7 -21 0 -25 7 -4 7 -12 0 -25 -7 -13 -7 -21 0 -25 6
-4 7 -12 1 -23 -5 -9 -5 -26 0 -39 5 -14 5 -23 -1 -23 -6 0 -6 -9 0 -25 6 -15
6 -26 0 -30 -6 -4 -7 -13 -2 -23 5 -9 6 -28 2 -42 -4 -14 -3 -33 2 -42 5 -10
4 -19 -2 -23 -6 -4 -6 -15 0 -30 6 -16 6 -25 0 -25 -6 0 -6 -9 -1 -23 5 -13 5
-30 0 -39 -6 -11 -5 -19 1 -23 7 -4 7 -12 0 -25 -7 -13 -7 -21 0 -25 7 -4 7
-12 0 -25 -7 -13 -7 -21 0 -25 7 -4 7 -13 0 -26 -7 -12 -7 -19 -1 -19 7 0 7
-9 1 -25 -6 -16 -6 -25 0 -25 6 0 6 -9 0 -25 -6 -16 -6 -25 1 -25 6 0 6 -7 -1
-19 -7 -13 -7 -22 0 -26 7 -4 7 -12 0 -25 -7 -13 -7 -21 0 -25 7 -4 7 -13 0
-26 -6 -10 -7 -19 -2 -19 5 0 6 -17 2 -39 -4 -21 -3 -46 2 -54 5 -9 4 -18 -1
-22 -7 -4 -7 -15 -1 -30 6 -16 6 -25 0 -25 -6 0 -6 -9 0 -25 6 -15 6 -26 -1
-30 -5 -4 -6 -13 0 -22 9 -17 3 -56 -8 -51 -3 2 -24 12 -46 23 -22 11 -41 23
-43 28 -2 4 -7 7 -12 7 -9 0 -259 144 -277 160 -7 6 -13 8 -13 4 0 -3 -6 -2
-12 4 -22 17 -259 152 -269 152 -5 0 -9 5 -9 10 0 6 -6 10 -14 10 -8 0 -16 3
-18 8 -1 4 -19 15 -38 26 -79 42 -146 79 -160 90 -8 7 -28 18 -45 26 -16 8
-64 35 -105 60 -41 25 -88 52 -105 60 -16 8 -32 17 -35 20 -3 3 -15 11 -27 18
-13 6 -33 18 -45 25 -13 6 -25 15 -28 18 -3 3 -20 11 -37 18 -18 8 -33 17 -33
20 0 4 -16 13 -35 21 -19 8 -35 17 -35 22 0 4 -5 8 -11 8 -6 0 -48 23 -95 50
-47 28 -89 50 -94 50 -6 0 -10 5 -10 10 0 6 -4 10 -10 10 -5 0 -55 27 -111 60
-55 33 -103 60 -105 60 -3 0 -28 15 -57 33 -29 18 -65 40 -82 49 -16 8 -102
57 -190 108 -88 51 -173 101 -190 110 -16 10 -54 31 -83 49 -29 17 -54 31 -56
31 -2 0 -41 22 -87 50 -46 27 -88 50 -92 50 -5 0 -15 6 -22 14 -28 28 -150 36
-225 16 -52 -14 -147 -77 -156 -102 -3 -10 -10 -18 -15 -18 -5 0 -9 -7 -9 -15
0 -8 -3 -15 -7 -15 -5 0 -13 -10 -18 -23 -17 -35 -59 -112 -66 -117 -3 -3 -19
-30 -35 -60 -16 -30 -31 -57 -34 -60 -3 -3 -13 -21 -24 -40 -21 -39 -25 -47
-120 -209 -36 -62 -66 -118 -66 -122 0 -5 -5 -9 -12 -9 -6 0 -8 -3 -5 -7 4 -3
1 -13 -7 -22 -7 -9 -25 -36 -38 -61 -44 -78 -68 -122 -145 -252 -98 -167 -113
-207 -109 -296 3 -74 43 -177 72 -189 8 -3 14 -11 14 -17 0 -7 18 -23 41 -36
22 -14 47 -31 54 -38 8 -7 17 -12 20 -12 3 1 32 -15 64 -34 32 -20 64 -36 70
-36 6 0 11 -4 11 -10 0 -5 4 -10 9 -10 11 0 221 -120 239 -137 6 -6 21 -15 32
-18 11 -4 49 -24 85 -46 36 -21 69 -39 74 -39 5 0 11 -3 13 -7 4 -10 53 -40
98 -60 19 -8 37 -18 40 -22 6 -7 39 -28 60 -38 8 -4 48 -26 88 -50 40 -24 77
-43 82 -43 6 0 10 -4 10 -10 0 -5 4 -10 9 -10 6 0 246 -134 321 -180 67 -42
173 -100 181 -100 5 0 9 -4 9 -9 0 -5 10 -13 23 -17 12 -4 46 -22 75 -40 29
-19 55 -34 58 -34 3 0 18 -8 32 -18 26 -18 102 -61 187 -106 22 -12 42 -24 45
-27 3 -3 25 -16 50 -30 25 -13 47 -27 48 -31 2 -5 7 -8 12 -8 5 0 48 -23 97
-51 94 -55 133 -77 188 -109 87 -49 103 -59 152 -88 28 -17 54 -28 57 -25 3 4
6 2 6 -3 0 -5 32 -27 70 -49 38 -22 70 -42 70 -45 0 -3 -66 -44 -147 -90 -82
-46 -150 -87 -153 -91 -3 -3 -15 -9 -27 -13 -13 -4 -23 -12 -23 -17 0 -5 -9
-9 -20 -9 -11 0 -20 -4 -20 -8 0 -4 -12 -13 -27 -20 -44 -19 -141 -76 -155
-89 -6 -7 -17 -13 -24 -13 -6 0 -17 -7 -24 -15 -7 -8 -21 -15 -31 -15 -11 0
-19 -4 -19 -10 0 -5 -4 -10 -10 -10 -5 0 -33 -15 -62 -34 -29 -18 -63 -36 -75
-40 -13 -4 -23 -11 -23 -16 0 -5 -10 -12 -22 -16 -13 -3 -34 -14 -48 -24 -14
-10 -47 -30 -75 -44 -27 -15 -57 -31 -65 -36 -59 -37 -151 -90 -154 -90 -2 0
-45 -25 -95 -55 -51 -30 -94 -55 -97 -55 -2 0 -21 -11 -42 -24 -29 -19 -351
-205 -542 -314 -19 -11 -62 -36 -95 -55 -33 -20 -84 -48 -112 -63 -29 -16 -53
-32 -53 -36 0 -4 -5 -8 -12 -8 -6 0 -54 -25 -105 -55 -52 -30 -98 -55 -104
-55 -5 0 -9 -4 -9 -10 0 -5 -4 -10 -9 -10 -7 0 -58 -28 -204 -113 -90 -53
-137 -105 -167 -187 -18 -49 -21 -141 -7 -198 6 -23 67 -143 78 -152 3 -3 8
-12 12 -20 4 -8 11 -22 17 -30 5 -8 30 -51 55 -95 26 -44 50 -87 55 -95 5 -8
64 -111 132 -229 68 -117 130 -225 138 -240 9 -14 31 -53 51 -86 19 -33 38
-67 43 -75 4 -8 18 -33 31 -55 14 -22 31 -54 39 -70 24 -51 96 -125 147 -151
27 -13 49 -21 49 -17 0 5 4 2 9 -5 7 -12 124 -19 161 -9 22 6 73 26 90 35 44
25 239 137 260 151 14 8 27 16 30 16 3 0 16 8 30 16 67 43 220 129 229 129 6
0 11 5 11 10 0 6 4 10 9 10 11 0 180 98 204 118 9 8 17 11 17 7 0 -4 9 0 20
10 11 10 20 14 20 9 0 -5 4 -4 8 2 10 15 547 324 563 324 5 0 9 4 9 8 0 4 27
21 60 37 33 17 60 33 60 38 0 4 6 7 14 7 7 0 19 7 26 15 7 8 16 12 21 9 5 -3
9 -1 9 4 0 5 8 12 18 15 18 6 74 38 82 48 7 8 44 22 53 20 4 0 10 6 13 14 4 8
13 15 20 15 8 0 20 5 27 11 22 19 191 114 199 111 4 -1 8 2 8 8 0 5 15 16 33
25 38 17 75 38 232 132 11 7 27 16 35 20 8 4 91 51 184 105 93 54 172 98 177
98 5 0 9 4 9 8 0 5 6 9 14 9 17 0 29 -34 15 -43 -6 -3 -6 -12 0 -22 5 -9 5
-26 0 -39 -5 -14 -5 -23 1 -23 6 0 6 -9 0 -24 -5 -15 -5 -27 2 -34 6 -6 6 -12
-1 -16 -7 -5 -8 -13 -2 -25 6 -10 6 -23 1 -31 -5 -8 -5 -21 1 -31 6 -11 5 -20
-1 -24 -6 -4 -6 -15 0 -30 6 -16 6 -25 0 -25 -6 0 -6 -9 -1 -23 5 -13 5 -30 0
-39 -6 -11 -5 -19 1 -23 7 -4 7 -12 0 -25 -7 -13 -7 -21 0 -25 7 -4 7 -12 0
-25 -7 -13 -7 -21 0 -25 7 -4 7 -13 0 -26 -7 -12 -7 -19 -1 -19 7 0 7 -9 1
-25 -6 -16 -6 -25 0 -25 6 0 6 -9 0 -25 -6 -16 -6 -25 1 -25 6 0 6 -7 -1 -19
-7 -13 -7 -22 0 -26 7 -4 7 -12 0 -25 -7 -13 -7 -21 0 -25 7 -4 7 -13 0 -26
-6 -10 -7 -19 -2 -19 5 0 6 -22 2 -50 -4 -27 -3 -50 2 -50 5 0 4 -9 -2 -19 -7
-13 -7 -22 0 -26 7 -4 7 -12 0 -25 -7 -13 -7 -21 0 -25 7 -4 7 -13 0 -26 -7
-12 -7 -19 -1 -19 7 0 7 -9 1 -25 -6 -16 -6 -25 0 -25 6 0 6 -9 0 -25 -6 -16
-6 -25 1 -25 6 0 6 -7 -1 -19 -7 -13 -7 -22 0 -26 7 -4 7 -12 0 -25 -7 -13 -7
-21 0 -25 7 -4 7 -12 0 -25 -7 -13 -7 -21 0 -25 6 -4 7 -12 1 -23 -5 -9 -5
-26 0 -39 5 -14 5 -23 -1 -23 -6 0 -6 -9 0 -25 6 -15 6 -26 0 -30 -6 -4 -7
-14 -2 -23 9 -19 8 -54 -2 -71 -4 -6 -2 -11 4 -11 8 0 8 -6 0 -20 -8 -14 -8
-20 0 -20 8 0 8 -6 0 -20 -8 -14 -8 -20 0 -20 8 0 8 -6 0 -20 -8 -14 -8 -20 0
-20 8 0 8 -6 0 -20 -8 -14 -8 -20 0 -20 8 0 8 -6 0 -20 -8 -14 -8 -20 0 -20 8
0 8 -6 0 -20 -8 -14 -8 -20 0 -20 6 0 8 -5 5 -11 -10 -16 -12 -79 -2 -79 4 0
3 -8 -2 -18 -6 -11 -6 -24 0 -34 6 -11 6 -19 -1 -23 -7 -4 -7 -12 0 -25 7 -13
7 -21 0 -25 -7 -4 -7 -12 0 -25 7 -13 7 -21 0 -25 -7 -4 -7 -12 0 -25 7 -13 7
-21 0 -25 -7 -4 -7 -13 0 -26 8 -13 7 -19 0 -19 -7 0 -8 -6 0 -19 7 -13 7 -22
0 -26 -7 -4 -7 -12 0 -25 7 -13 7 -21 0 -25 -7 -4 -7 -12 0 -25 7 -13 7 -21 0
-25 -7 -4 -7 -12 0 -25 7 -13 7 -21 0 -25 -6 -4 -7 -13 -1 -23 6 -11 6 -24 0
-35 -6 -9 -6 -17 -2 -17 10 0 8 -63 -2 -79 -3 -6 -1 -11 5 -11 8 0 8 -6 0 -20
-8 -14 -8 -20 0 -20 8 0 8 -6 0 -20 -8 -14 -8 -20 0 -20 8 0 8 -6 0 -20 -8
-14 -8 -20 0 -20 8 0 8 -6 0 -20 -8 -14 -8 -20 0 -20 8 0 8 -6 0 -20 -8 -14
-8 -20 0 -20 8 0 8 -6 0 -20 -8 -14 -8 -20 0 -20 6 0 8 -5 5 -11 -10 -16 -12
-79 -2 -79 4 0 3 -9 -3 -19 -7 -13 -7 -22 0 -26 7 -4 7 -12 0 -25 -7 -13 -7
-21 0 -25 7 -4 7 -13 0 -26 -7 -12 -7 -19 -1 -19 7 0 7 -9 1 -25 -6 -16 -6
-25 0 -25 6 0 6 -9 0 -25 -5 -14 -6 -25 -2 -25 4 0 8 -26 8 -58 4 -123 90
-231 224 -280 8 -3 330 -7 714 -9 683 -4 700 -3 760 17 111 37 203 150 211
259 2 28 6 55 10 61 3 5 2 10 -4 10 -7 0 -7 8 -1 25 6 16 6 25 0 25 -6 0 -6 9
0 25 6 16 6 25 -1 25 -6 0 -6 7 1 19 7 13 7 22 0 26 -7 4 -7 12 0 25 7 13 7
21 0 25 -7 4 -7 13 0 26 6 10 7 19 2 19 -5 0 -6 17 -2 39 4 21 3 46 -2 54 -5
9 -4 18 1 22 7 4 7 15 1 30 -6 16 -6 25 0 25 6 0 6 9 1 23 -5 13 -5 30 0 39 6
11 5 19 -1 23 -7 4 -7 12 0 25 7 13 7 21 0 25 -7 4 -7 12 0 25 7 13 7 21 0 25
-7 4 -7 13 0 26 7 12 7 19 1 19 -7 0 -7 9 -1 25 6 16 6 25 0 25 -6 0 -6 9 0
25 6 16 6 25 -1 25 -6 0 -6 7 1 19 7 13 7 22 0 26 -7 4 -7 12 0 25 7 13 7 21
0 25 -7 4 -7 13 0 26 6 10 7 19 2 19 -5 0 -6 22 -2 50 4 27 3 50 -2 50 -5 0
-4 9 2 19 7 13 7 22 0 26 -7 4 -7 12 0 25 7 13 7 21 0 25 -7 4 -7 13 0 26 7
12 7 19 1 19 -7 0 -7 9 -1 25 6 16 6 25 0 25 -6 0 -6 9 0 25 6 16 6 25 -1 25
-6 0 -6 7 1 19 7 13 7 22 0 26 -7 4 -7 12 0 25 7 13 7 21 0 25 -7 4 -7 12 0
25 7 13 7 21 0 25 -6 4 -7 12 -1 23 5 9 5 26 0 39 -5 14 -5 23 1 23 6 0 6 9 0
25 -6 15 -6 26 0 30 6 4 7 14 2 23 -9 19 -8 54 2 71 4 6 2 11 -4 11 -8 0 -8 6
0 20 8 14 8 20 0 20 -8 0 -8 6 0 20 8 14 8 20 0 20 -8 0 -8 6 0 20 8 14 8 20
0 20 -8 0 -8 6 0 20 8 14 8 20 0 20 -8 0 -8 6 0 20 8 14 8 20 0 20 -8 0 -8 6
0 20 8 14 8 20 0 20 -6 0 -8 5 -5 11 10 16 12 79 2 79 -4 0 -4 8 2 17 6 11 6
24 0 35 -6 10 -5 19 1 23 7 4 7 12 0 25 -7 13 -7 21 0 25 7 4 7 12 0 25 -7 13
-7 21 0 25 7 4 7 12 0 25 -7 13 -7 21 0 25 7 4 7 13 0 26 -8 13 -7 19 0 19 7
0 8 6 0 19 -7 13 -7 22 0 26 7 4 7 12 0 25 -7 13 -7 21 0 25 7 4 7 12 0 25 -7
13 -7 21 0 25 7 4 7 12 0 25 -7 13 -7 21 0 25 6 4 7 13 1 23 -6 11 -6 24 0 35
6 9 6 17 2 17 -10 0 -8 63 2 79 3 6 1 11 -5 11 -8 0 -8 6 0 20 8 14 8 20 0 20
-8 0 -8 6 0 20 8 14 8 20 0 20 -8 0 -8 6 0 20 8 14 8 20 0 20 -8 0 -8 6 0 20
8 14 8 20 0 20 -8 0 -8 6 0 20 8 14 8 20 0 20 -8 0 -8 6 0 20 8 14 8 20 0 20
-6 0 -8 4 -5 10 12 19 14 50 4 56 -6 4 -6 10 1 19 7 9 8 15 1 19 -7 5 -7 15
-1 31 6 16 6 25 0 25 -6 0 -6 9 0 24 5 13 6 26 3 29 -8 8 -9 77 -1 77 9 0 116
-58 150 -82 14 -10 28 -18 31 -18 10 0 182 -104 189 -114 4 -6 8 -7 8 -2 0 4
12 0 28 -10 15 -10 126 -75 247 -144 121 -70 264 -152 317 -183 54 -32 102
-57 108 -57 5 0 10 -4 10 -9 0 -5 8 -11 18 -14 17 -6 93 -48 102 -57 4 -4 39
-24 95 -54 11 -6 27 -16 35 -22 8 -6 40 -25 70 -41 30 -17 95 -53 144 -82 49
-28 93 -51 97 -51 5 0 9 -4 9 -10 0 -5 4 -10 9 -10 9 0 99 -49 161 -88 14 -9
27 -15 30 -15 3 1 12 -4 20 -12 8 -7 31 -21 50 -30 19 -10 37 -21 40 -24 3 -3
30 -19 60 -35 30 -16 78 -43 105 -61 28 -17 65 -37 83 -44 17 -7 32 -17 32
-22 0 -5 4 -9 9 -9 5 0 49 -23 98 -51 48 -28 102 -59 118 -69 295 -172 314
-180 392 -182 66 -2 147 17 164 38 6 8 17 14 24 14 16 0 95 86 115 126 8 16
29 53 47 82 18 29 33 54 33 56 0 2 60 107 133 233 74 127 137 236 141 244 3 8
15 28 26 44 11 17 26 44 34 60 18 36 59 108 66 115 3 3 11 16 18 29 8 13 23
40 34 60 11 20 40 70 64 112 61 106 73 146 70 228 -4 83 -40 164 -96 215 -38
34 -221 146 -239 146 -6 0 -11 4 -11 8 0 4 -24 20 -52 35 -29 15 -62 33 -73
40 -11 7 -43 27 -72 44 -29 18 -53 29 -53 25 0 -4 -4 -2 -8 3 -4 6 -16 15 -27
21 -11 6 -65 37 -120 69 -55 32 -120 69 -145 83 -25 13 -53 32 -64 41 -10 9
-19 14 -20 12 0 -3 -12 2 -26 11 -62 39 -152 88 -161 88 -5 0 -9 5 -9 10 0 6
-4 10 -10 10 -5 0 -47 22 -92 49 -46 27 -101 59 -123 71 -22 13 -53 31 -70 41
-16 10 -41 24 -55 30 -13 5 -27 13 -30 17 -3 4 -21 15 -40 26 -56 30 -120 66
-185 105 -33 20 -73 43 -90 51 -16 8 -32 17 -35 20 -3 3 -16 11 -29 18 -36 21
-72 41 -246 142 -88 51 -176 101 -195 112 -19 11 -48 27 -65 37 -38 23 -98 57
-155 89 -25 13 -52 30 -60 37 -8 7 -30 18 -47 26 -18 8 -33 17 -33 21 0 5 -7
8 -15 8 -8 0 -15 4 -15 10 0 5 -3 9 -7 8 -9 -3 -93 45 -93 52 0 5 55 38 165
100 63 35 208 119 225 130 8 6 26 16 40 22 14 7 31 18 38 25 7 7 20 13 28 13
8 0 14 5 14 10 0 6 4 10 9 10 6 0 80 41 165 90 86 50 161 90 166 90 6 0 10 4
10 10 0 5 11 12 25 16 14 3 25 9 25 13 0 4 20 15 45 26 25 11 45 23 45 26 0 3
27 19 60 35 33 16 60 33 60 37 0 5 5 5 10 2 6 -3 10 -1 10 5 0 6 10 14 23 19
12 5 63 32 112 61 50 29 108 63 131 75 22 13 58 34 80 47 21 14 46 28 54 31 8
4 29 15 45 26 87 53 297 171 305 171 6 0 10 4 10 9 0 5 8 11 18 14 17 6 93 48
102 57 5 5 24 16 88 51 20 11 51 28 67 38 17 10 113 66 215 125 102 58 192
111 200 116 8 5 41 24 73 41 133 74 198 167 203 289 2 62 -20 161 -38 168 -4
2 -8 8 -8 13 0 5 -40 78 -89 162 -49 84 -98 168 -108 187 -11 19 -32 55 -47
80 -15 25 -29 53 -33 63 -3 9 -9 17 -14 17 -5 0 -9 4 -9 9 0 5 -23 49 -51 98
-29 48 -63 108 -77 133 -14 25 -33 59 -43 75 -10 17 -30 53 -44 80 -15 28 -33
57 -41 66 -8 8 -14 19 -14 23 0 4 -16 32 -35 62 -19 30 -35 59 -35 64 0 6 -4
10 -10 10 -5 0 -10 6 -10 13 -1 27 -130 107 -185 115 -120 16 -184 -4 -352
-111 -24 -15 -46 -27 -51 -27 -5 0 -22 -11 -37 -24 -16 -14 -32 -23 -36 -20
-4 2 -14 -3 -22 -11 -9 -8 -18 -15 -21 -15 -4 0 -39 -20 -79 -44 -39 -24 -82
-47 -94 -50 -13 -4 -23 -11 -23 -15 0 -4 -22 -18 -50 -31 -27 -13 -50 -27 -50
-32 0 -4 -5 -8 -11 -8 -6 0 -37 -15 -68 -34 -66 -40 -125 -74 -163 -93 -15 -8
-30 -18 -33 -24 -4 -5 -15 -9 -26 -9 -10 0 -19 -4 -19 -8 0 -5 -17 -17 -37
-29 -53 -28 -106 -58 -188 -106 -95 -56 -124 -72 -165 -94 -19 -10 -37 -20
-40 -23 -7 -7 -48 -30 -85 -49 -16 -8 -32 -17 -35 -20 -3 -3 -14 -11 -25 -17
-11 -6 -81 -46 -155 -89 -141 -81 -177 -102 -234 -135 -138 -77 -252 -146
-257 -153 -3 -5 -10 -9 -15 -9 -13 0 -110 -54 -136 -76 -8 -6 -17 -10 -20 -7
-3 3 -11 -1 -18 -10 -7 -8 -19 -15 -26 -15 -8 0 -14 -4 -14 -8 0 -4 -12 -13
-27 -19 -16 -7 -46 -23 -68 -38 -22 -14 -56 -32 -75 -41 -19 -9 -37 -19 -40
-23 -3 -3 -14 -11 -25 -17 -11 -6 -42 -23 -68 -37 -51 -29 -61 -32 -52 -18 3
5 1 12 -4 15 -5 4 -6 18 -2 34 5 15 4 37 0 50 -5 13 -4 22 1 22 6 0 6 9 0 25
-6 15 -6 26 0 30 6 4 7 14 2 23 -9 19 -8 54 2 71 4 6 2 11 -4 11 -8 0 -8 6 0
20 8 14 8 20 0 20 -8 0 -8 6 0 20 8 14 8 20 0 20 -8 0 -8 6 0 20 8 14 8 20 0
20 -8 0 -8 6 0 20 8 14 8 20 0 20 -8 0 -8 6 0 20 8 14 8 20 0 20 -8 0 -8 6 0
20 8 14 8 20 0 20 -6 0 -8 5 -5 11 10 16 12 79 2 79 -4 0 -3 8 2 18 6 11 6 24
0 34 -6 11 -6 19 1 23 7 4 7 12 0 25 -7 13 -7 21 0 25 7 4 7 12 0 25 -7 13 -7
21 0 25 7 4 7 12 0 25 -7 13 -7 21 0 25 7 4 7 13 0 26 -8 13 -7 19 0 19 7 0 8
6 0 19 -7 13 -7 22 0 26 7 4 7 12 0 25 -7 13 -7 21 0 25 7 4 7 12 0 25 -7 13
-7 21 0 25 7 4 7 12 0 25 -7 13 -7 21 0 25 6 4 7 13 1 23 -6 11 -6 24 0 35 6
9 6 17 2 17 -10 0 -8 63 2 79 3 6 1 11 -5 11 -8 0 -8 6 0 20 8 14 8 20 0 20
-8 0 -8 6 0 20 8 14 8 20 0 20 -8 0 -8 6 0 20 8 14 8 20 0 20 -8 0 -8 6 0 20
8 14 8 20 0 20 -8 0 -8 6 0 20 8 14 8 20 0 20 -8 0 -8 6 0 20 8 14 8 20 0 20
-6 0 -8 5 -5 11 10 16 12 79 2 79 -4 0 -3 9 3 19 7 13 7 22 0 26 -7 4 -7 12 0
25 7 13 7 21 0 25 -7 4 -7 13 0 26 7 12 7 19 1 19 -7 0 -7 9 -1 25 6 16 6 25
0 25 -6 0 -6 9 0 25 6 16 6 25 -1 25 -6 0 -6 7 1 19 7 13 7 22 0 26 -7 4 -7
12 0 25 7 13 7 21 0 25 -7 4 -7 12 0 25 7 13 7 21 0 25 -6 4 -7 12 -1 23 5 9
5 26 0 39 -5 14 -5 23 1 23 6 0 6 9 0 25 -6 15 -6 26 0 30 6 4 7 13 2 23 -5 9
-6 28 -2 42 4 14 3 33 -2 42 -5 10 -4 19 2 23 6 4 6 15 0 30 -6 16 -6 25 0 25
6 0 6 9 1 23 -5 13 -5 30 0 39 6 11 5 19 -1 23 -7 4 -7 12 0 25 7 13 7 21 0
25 -7 4 -7 12 0 25 7 13 7 21 0 25 -7 4 -7 13 0 26 7 12 7 19 1 19 -7 0 -7 9
-1 25 6 16 6 25 0 25 -6 0 -6 9 0 25 6 16 6 25 -1 25 -6 0 -6 7 1 19 7 13 7
22 0 26 -7 4 -7 12 0 25 7 13 7 21 0 25 -7 4 -7 13 0 26 6 10 7 19 2 19 -5 0
-6 17 -2 39 4 21 3 46 -2 54 -5 9 -4 18 1 22 7 4 7 15 1 30 -6 16 -6 25 0 25
6 0 6 10 0 26 -6 14 -7 23 -2 21 4 -3 7 8 7 23 0 15 -3 26 -7 23 -5 -2 -4 7 2
21 6 16 6 26 0 26 -6 0 -6 9 0 25 5 14 6 25 2 25 -4 0 -8 22 -9 49 -2 60 -34
129 -82 178 -43 44 -81 75 -81 67 0 -4 -7 -1 -15 6 -8 7 -15 9 -15 5 0 -4 -7
-1 -17 6 -13 12 -141 14 -727 16 -391 1 -724 -3 -741 -8z"/>
</g>
</svg>
