<svg id="Layer_1" data-name="Layer 1" xmlns="http://www.w3.org/2000/svg" viewBox="0 0 480 512"><defs><style>.cls-1{fill:#095e75;}</style></defs><path class="cls-1" d="M472,334.43,336.06,256,472,177.57a16,16,0,0,0,5.86-21.86l-32-55.43A16,16,0,0,0,424,94.42L288,172.85V16A16,16,0,0,0,272,0H208a16,16,0,0,0-16,16V172.86L56,94.43a16,16,0,0,0-21.87,5.86l-32,55.42A16,16,0,0,0,8,177.57L143.94,256,8,334.43a16,16,0,0,0-5.86,21.86l32,55.43A16,16,0,0,0,56,417.58L192,339.15V496a16,16,0,0,0,16,16h64a16,16,0,0,0,16-16V339.14L424,417.57a16,16,0,0,0,21.87-5.86l32-55.43A16,16,0,0,0,472,334.43Z" transform="translate(0)"/></svg>